<?xml version="1.0" encoding="UTF-8"?>
<svg xmlns="http://www.w3.org/2000/svg" xmlns:xlink="http://www.w3.org/1999/xlink" width="391pt" height="368pt" viewBox="0 0 391 368" version="1.1">
<g id="surface1">
<path style=" stroke:none;fill-rule:nonzero;fill:rgb(0%,0%,0%);fill-opacity:1;" d="M 195.023438 293.074219 L 90.226563 293.074219 L 90.226563 326.074219 C 90.25 366.371094 32.011719 366.851563 32.023438 326.074219 L 32.023438 293.074219 L 1.023438 293.074219 L 1.023438 189.476563 C 1.015625 161.6875 23.375 147 36.023438 145.375 L 67.824219 63.976563 C 73.875 48.5 86.875 35.253906 111.324219 35.273438 L 156.925781 35.273438 L 156.925781 13.976563 C 156.914063 5.5 161.523438 1.183594 169.023438 1.175781 L 221.523438 1.175781 C 229 1.183594 233.609375 5.5 233.625 13.976563 L 233.625 35.273438 L 278.625 35.273438 C 303.125 35.253906 316.125 48.5 322.125 63.976563 L 354.023438 145.375 C 366.625 147 389.007813 161.6875 389.023438 189.476563 L 389.023438 293.074219 L 358.023438 293.074219 L 358.023438 326.074219 C 358.011719 366.851563 299.773438 366.371094 299.726563 326.074219 L 299.726563 293.074219 L 195.023438 293.074219 "/>
<path style=" stroke:none;fill-rule:nonzero;fill:rgb(100%,100%,100%);fill-opacity:1;" d="M 195.023438 143.476563 L 69.023438 143.476563 L 93.023438 80.476563 C 95.996094 71.5 100.5 65 111.023438 64.875 L 279.023438 64.875 C 289.503906 65 294.003906 71.5 297.023438 80.476563 L 321.023438 143.476563 L 195.023438 143.476563 "/>
<path style=" stroke:none;fill-rule:nonzero;fill:rgb(100%,100%,100%);fill-opacity:1;" d="M 62.023438 229.773438 C 47.203125 229.734375 35.15625 217.445313 35.125 202.273438 C 35.15625 187.128906 47.203125 174.835938 62.023438 174.875 C 76.914063 174.835938 88.960938 187.128906 88.925781 202.273438 C 88.960938 217.445313 76.914063 229.734375 62.023438 229.773438 "/>
<path style=" stroke:none;fill-rule:nonzero;fill:rgb(100%,100%,100%);fill-opacity:1;" d="M 327.925781 229.773438 C 342.796875 229.734375 354.84375 217.445313 354.824219 202.273438 C 354.84375 187.128906 342.796875 174.835938 327.925781 174.875 C 313.085938 174.835938 301.039063 187.128906 301.023438 202.273438 C 301.039063 217.445313 313.085938 229.734375 327.925781 229.773438 "/>
</g>
</svg>
